<svg width="50" height="52" viewBox="0 0 50 52" fill="none" xmlns="http://www.w3.org/2000/svg">
<path d="M22.8142 4.96746C23.7665 3.25202 26.2335 3.25202 27.1858 4.96745L43.7397 34.7866C44.6647 36.4529 43.4598 38.5 41.5539 38.5H8.44608C6.54021 38.5 5.33526 36.4529 6.2603 34.7866L22.8142 4.96746Z" stroke="#F22411"/>
<path d="M26.2813 15.5217C26.0672 15.5794 25.9594 15.6061 25.6094 15.6947C25.5016 15.7214 25.2532 15.7861 25.0547 15.8367C24.8579 15.8887 24.611 15.952 24.5079 15.9773C24.3485 16.0167 23.8204 16.1531 23.4297 16.2544C23.3704 16.2698 23.286 16.2909 23.2422 16.3008C22.886 16.3865 22.4907 16.4962 22.4469 16.5215C22.4172 16.5398 22.375 16.5792 22.3516 16.6101C22.2844 16.7044 22.275 16.7578 22.2969 16.9687C22.3063 17.0728 22.3172 17.1811 22.3188 17.2078C22.3219 17.2345 22.3282 17.295 22.3344 17.3414C22.3407 17.3878 22.3516 17.4862 22.361 17.5594C22.4079 17.9503 22.4172 17.9883 22.5063 18.0712C22.5344 18.0993 22.5532 18.1261 22.5469 18.1289C22.5391 18.1331 22.5141 18.1669 22.4907 18.2034C22.4297 18.3004 22.4313 18.389 22.5079 18.9529C22.5313 19.1217 22.5625 19.192 22.65 19.2595L22.7063 19.3045L22.6672 19.3425C22.5922 19.4142 22.561 19.4929 22.5641 19.5956C22.5657 19.6462 22.5735 19.7137 22.5797 19.7461C22.586 19.777 22.5985 19.8586 22.6094 19.9289C22.6532 20.2411 22.6688 20.2861 22.7547 20.3676L22.8032 20.414L22.7719 20.445C22.6969 20.5223 22.6829 20.5969 22.7047 20.8008C22.7125 20.8851 22.7266 21.0159 22.7344 21.089C22.7422 21.1622 22.7563 21.2915 22.7657 21.3773C22.7844 21.5489 22.8094 21.8034 22.8204 21.9117C22.8235 21.9497 22.8344 22.0495 22.8422 22.1325C22.8516 22.2169 22.8672 22.3519 22.875 22.4348C22.8844 22.5192 22.8985 22.6472 22.9079 22.7203C22.9157 22.7934 22.9329 22.9608 22.9454 23.0929C22.9579 23.2237 22.975 23.3967 22.9844 23.4754C23.0344 23.9325 23.0594 24.1687 23.0704 24.2953C23.0766 24.3712 23.0969 24.5583 23.125 24.8086C23.1532 25.0589 23.1735 25.2459 23.1797 25.3219C23.1938 25.4822 23.2297 25.8183 23.2672 26.1515C23.2907 26.3751 23.3157 26.6212 23.3157 26.6437C23.3157 26.655 23.3219 26.7154 23.3282 26.7773C23.3422 26.8912 23.3594 27.0375 23.3922 27.3398C23.4141 27.5325 23.436 27.5831 23.5344 27.6661C23.65 27.7603 23.725 27.7729 24.0079 27.742C24.0938 27.7336 24.2235 27.7195 24.2969 27.7125C24.3704 27.7054 24.4938 27.6928 24.5704 27.6844C24.6485 27.6773 24.8125 27.6604 24.9375 27.6492C25.386 27.6084 25.425 27.6028 25.5235 27.5592C25.5813 27.5339 25.6532 27.5156 25.711 27.51C26.1047 27.479 26.1829 27.4622 26.2688 27.3919C26.3766 27.3047 26.3875 27.2667 26.4297 26.8406C26.45 26.6339 26.475 26.4103 26.5172 26.039C26.525 25.9659 26.5422 25.8014 26.5547 25.6734C26.5672 25.5454 26.586 25.3753 26.5938 25.2937C26.6032 25.2122 26.6172 25.0884 26.625 25.0195C26.6641 24.6722 26.6735 24.5779 26.6797 24.5133C26.6891 24.4176 26.7172 24.1476 26.7344 23.9929C26.7422 23.9226 26.7563 23.8003 26.7657 23.7187C26.7735 23.6372 26.7922 23.467 26.8047 23.339C26.8172 23.2111 26.836 23.0409 26.8438 22.9594C26.8532 22.8778 26.8672 22.754 26.875 22.6851C26.9016 22.4433 26.9235 22.2492 26.9313 22.1719C26.9469 22.0059 26.975 21.7443 27.0157 21.3914C27.0235 21.3211 27.0407 21.1565 27.0532 21.0258C27.0672 20.8936 27.0844 20.7262 27.0922 20.6531C27.1016 20.58 27.1157 20.4492 27.125 20.3648C27.1344 20.279 27.1485 20.1469 27.1579 20.0695C27.1657 19.9922 27.1766 19.8965 27.1797 19.8586C27.1829 19.8192 27.1938 19.7151 27.2032 19.6265C27.2188 19.4761 27.2297 19.3804 27.2657 19.057C27.2829 18.9023 27.311 18.6323 27.3204 18.5367C27.3235 18.4973 27.3344 18.3961 27.3438 18.3117C27.3532 18.2259 27.3672 18.0993 27.375 18.0304C27.3829 17.9601 27.3969 17.8378 27.4063 17.7562C27.4157 17.6747 27.4329 17.5101 27.4454 17.3906C27.4579 17.2711 27.4766 17.0967 27.4875 17.0039C27.5157 16.7648 27.5125 16.6776 27.4719 16.6087C27.4313 16.537 27.3485 16.4709 27.2719 16.4484C27.2157 16.4315 27.0516 16.4358 26.9969 16.4554C26.9766 16.4625 26.9625 16.4498 26.936 16.4048C26.9 16.3415 26.9016 16.3514 26.9313 16.0758C26.9641 15.7692 26.9563 15.7031 26.8704 15.6019C26.8 15.5189 26.7079 15.4753 26.5891 15.4697C26.511 15.4654 26.45 15.4767 26.2813 15.5217Z" fill="#FF0046"/>
<path d="M24.9455 28.0866C24.7908 28.1077 24.5517 28.1724 24.4299 28.2258C24.3877 28.2455 24.3267 28.2609 24.2971 28.2609C24.2361 28.2609 24.0439 28.2919 23.8971 28.3228C23.5814 28.3917 23.2408 28.5703 22.9736 28.8066C22.683 29.0625 22.5033 29.3227 22.3939 29.6419C22.3236 29.843 22.3127 29.8978 22.2939 30.113C22.2783 30.3 22.2892 30.57 22.3205 30.7149C22.4549 31.3463 22.9236 31.9116 23.5471 32.1914C23.8392 32.3222 24.0814 32.377 24.4283 32.3911C24.6392 32.3981 24.9283 32.3813 25.0267 32.3545C25.2892 32.2814 25.3721 32.2547 25.4924 32.1999C25.7439 32.0831 25.8564 32.0072 26.0939 31.792C26.2189 31.6795 26.3658 31.5586 26.4221 31.5249C26.9002 31.2338 27.2361 30.7388 27.3049 30.2269C27.3174 30.1228 27.3174 29.8317 27.3049 29.7263C27.2127 29.0189 26.6424 28.3805 25.8986 28.1555C25.6236 28.0725 25.2471 28.0444 24.9455 28.0866Z" fill="#FF0046"/>
</svg>
