<svg width="24" height="24" viewBox="0 0 24 24" fill="none" xmlns="http://www.w3.org/2000/svg">
<path d="M21.0999 14.8749L12.6999 23.2999C12.5999 23.3999 12.4916 23.4709 12.3749 23.5129C12.2582 23.5549 12.1332 23.5756 11.9999 23.5749C11.8666 23.5749 11.7416 23.5539 11.6249 23.5119C11.5082 23.4699 11.3999 23.3993 11.2999 23.2999L2.8749 14.8749C2.64157 14.6416 2.5249 14.3499 2.5249 13.9999C2.5249 13.6499 2.6499 13.3499 2.8999 13.0999C3.1499 12.8499 3.44157 12.7249 3.7749 12.7249C4.10824 12.7249 4.3999 12.8499 4.6499 13.0999L11.9999 20.4499L19.3499 13.0999C19.5832 12.8666 19.8709 12.7499 20.2129 12.7499C20.5549 12.7499 20.8506 12.8749 21.0999 13.1249C21.3499 13.3749 21.4749 13.6666 21.4749 13.9999C21.4749 14.3333 21.3499 14.6249 21.0999 14.8749Z" fill="#2A3035"/>
</svg>
