<svg width="26" height="26" viewBox="0 0 26 26" fill="none" xmlns="http://www.w3.org/2000/svg">
<path d="M14.0241 6.40579C13.8528 6.45063 13.7666 6.47141 13.4866 6.54032C13.4003 6.5611 13.2016 6.61141 13.0428 6.65079C12.8853 6.69125 12.6878 6.74047 12.6053 6.76016C12.4778 6.79078 12.0553 6.89688 11.7428 6.97563C11.6953 6.98766 11.6278 7.00407 11.5928 7.01172C11.3078 7.07844 10.9916 7.16375 10.9566 7.18344C10.9328 7.19766 10.8991 7.22828 10.8803 7.25235C10.8266 7.32563 10.8191 7.36719 10.8366 7.53125C10.8441 7.61219 10.8528 7.69641 10.8541 7.71719C10.8566 7.73797 10.8616 7.785 10.8666 7.8211C10.8716 7.85719 10.8803 7.93375 10.8878 7.99063C10.9253 8.29469 10.9328 8.32422 11.0041 8.38875C11.0266 8.41063 11.0416 8.43141 11.0366 8.4336C11.0303 8.43688 11.0103 8.46313 10.9916 8.49157C10.9428 8.56703 10.9441 8.63594 11.0053 9.07453C11.0241 9.20578 11.0491 9.26047 11.1191 9.31297L11.1641 9.34797L11.1328 9.3775C11.0728 9.43328 11.0478 9.49453 11.0503 9.57438C11.0516 9.61375 11.0578 9.66625 11.0628 9.69141C11.0678 9.71547 11.0778 9.77891 11.0866 9.8336C11.1216 10.0764 11.1341 10.1114 11.2028 10.1748L11.2416 10.2109L11.2166 10.235C11.1566 10.2952 11.1453 10.3531 11.1628 10.5117C11.1691 10.5773 11.1803 10.6791 11.1866 10.7359C11.1928 10.7928 11.2041 10.8934 11.2116 10.9602C11.2266 11.0936 11.2466 11.2916 11.2553 11.3758C11.2578 11.4053 11.2666 11.483 11.2728 11.5475C11.2803 11.6131 11.2928 11.7181 11.2991 11.7827C11.3066 11.8483 11.3178 11.9478 11.3253 12.0047C11.3316 12.0616 11.3453 12.1917 11.3553 12.2945C11.3653 12.3963 11.3791 12.5308 11.3866 12.592C11.4266 12.9475 11.4466 13.1313 11.4553 13.2297C11.4603 13.2888 11.4766 13.4342 11.4991 13.6289C11.5216 13.8236 11.5378 13.9691 11.5428 14.0281C11.5541 14.1528 11.5828 14.4142 11.6128 14.6734C11.6316 14.8473 11.6516 15.0388 11.6516 15.0563C11.6516 15.065 11.6566 15.112 11.6616 15.1602C11.6728 15.2488 11.6866 15.3625 11.7128 15.5977C11.7303 15.7475 11.7478 15.7869 11.8266 15.8514C11.9191 15.9247 11.9791 15.9345 12.2053 15.9105C12.2741 15.9039 12.3778 15.893 12.4366 15.8875C12.4953 15.882 12.5941 15.8722 12.6553 15.8656C12.7178 15.8602 12.8491 15.847 12.9491 15.8383C13.3078 15.8066 13.3391 15.8022 13.4178 15.7683C13.4641 15.7486 13.5216 15.7344 13.5678 15.73C13.8828 15.7059 13.9453 15.6928 14.0141 15.6381C14.1003 15.5703 14.1091 15.5408 14.1428 15.2094C14.1591 15.0486 14.1791 14.8747 14.2128 14.5859C14.2191 14.5291 14.2328 14.4011 14.2428 14.3016C14.2528 14.202 14.2678 14.0697 14.2741 14.0063C14.2816 13.9428 14.2928 13.8466 14.2991 13.793C14.3303 13.5228 14.3378 13.4495 14.3428 13.3992C14.3503 13.3248 14.3728 13.1148 14.3866 12.9945C14.3928 12.9398 14.4041 12.8447 14.4116 12.7813C14.4178 12.7178 14.4328 12.5855 14.4428 12.4859C14.4528 12.3864 14.4678 12.2541 14.4741 12.1906C14.4816 12.1272 14.4928 12.0309 14.4991 11.9773C14.5203 11.7892 14.5378 11.6383 14.5441 11.5781C14.5566 11.4491 14.5791 11.2456 14.6116 10.9711C14.6178 10.9164 14.6316 10.7884 14.6416 10.6867C14.6528 10.5839 14.6666 10.4538 14.6728 10.3969C14.6803 10.34 14.6916 10.2383 14.6991 10.1727C14.7066 10.1059 14.7178 10.0031 14.7253 9.94297C14.7316 9.88282 14.7403 9.80844 14.7428 9.77891C14.7453 9.74828 14.7541 9.66735 14.7616 9.59844C14.7741 9.48141 14.7828 9.40703 14.8116 9.15547C14.8253 9.03516 14.8478 8.82516 14.8553 8.75078C14.8578 8.72016 14.8666 8.64141 14.8741 8.57578C14.8816 8.50907 14.8928 8.41063 14.8991 8.35703C14.9053 8.30235 14.9166 8.20719 14.9241 8.14375C14.9316 8.08032 14.9453 7.95235 14.9553 7.85938C14.9653 7.76641 14.9803 7.63078 14.9891 7.5586C15.0116 7.37266 15.0091 7.30485 14.9766 7.25125C14.9441 7.19547 14.8778 7.14407 14.8166 7.12657C14.7716 7.11344 14.6403 7.11672 14.5966 7.13203C14.5803 7.1375 14.5691 7.12766 14.5478 7.09266C14.5191 7.04344 14.5203 7.0511 14.5441 6.83672C14.5703 6.59829 14.5641 6.54688 14.4953 6.46813C14.4391 6.4036 14.3653 6.36969 14.2703 6.36532C14.2078 6.36204 14.1591 6.37079 14.0241 6.40579Z" fill="#84B502"/>
<path d="M12.955 16.1784C12.8313 16.1948 12.64 16.2452 12.5425 16.2867C12.5088 16.302 12.46 16.3141 12.4363 16.3141C12.3875 16.3141 12.2338 16.3381 12.1163 16.3622C11.8638 16.4158 11.5913 16.5547 11.3775 16.7384C11.145 16.9375 11.0013 17.1398 10.9138 17.3881C10.8575 17.5445 10.8488 17.5872 10.8338 17.7545C10.8213 17.9 10.83 18.11 10.855 18.2227C10.9625 18.7137 11.3375 19.1534 11.8363 19.3711C12.07 19.4728 12.2638 19.5155 12.5413 19.5264C12.71 19.5319 12.9413 19.5187 13.02 19.498C13.23 19.4411 13.2963 19.4203 13.3925 19.3777C13.5938 19.2869 13.6838 19.2278 13.8738 19.0605C13.9738 18.973 14.0913 18.8789 14.1363 18.8527C14.5188 18.6262 14.7875 18.2412 14.8425 17.8431C14.8525 17.7622 14.8525 17.5358 14.8425 17.4537C14.7688 16.9036 14.3125 16.407 13.7175 16.232C13.4975 16.1675 13.1963 16.1456 12.955 16.1784Z" fill="#84B502"/>
<circle cx="13" cy="13" r="12.5" stroke="#84B502"/>
</svg>
