<svg width="26" height="26" viewBox="0 0 26 26" fill="none" xmlns="http://www.w3.org/2000/svg">
<path d="M9.00307 3.61765L17.8189 11.6065C17.9236 11.7016 17.9996 11.8065 18.0471 11.921C18.0947 12.0355 18.1213 12.1594 18.127 12.2926C18.1333 12.4258 18.1186 12.5516 18.0829 12.6701C18.0472 12.7886 17.9814 12.9002 17.8856 13.0049L9.8718 21.8219C9.64986 22.0661 9.36408 22.1966 9.01448 22.2132C8.66488 22.2299 8.35926 22.1194 8.09763 21.8816C7.836 21.6438 7.69724 21.3584 7.68135 21.0254C7.66546 20.6925 7.77641 20.3952 8.01421 20.1336L15.0055 12.4416L7.31351 5.45027C7.06932 5.22833 6.93907 4.94655 6.92277 4.60494C6.90647 4.26333 7.01723 3.96204 7.25506 3.70107C7.49286 3.43944 7.77824 3.30068 8.11119 3.28479C8.44415 3.2689 8.74144 3.37985 9.00307 3.61765Z" fill="#4D565E"/>
</svg>
