<svg width="49" height="58" viewBox="0 0 49 58" fill="none" xmlns="http://www.w3.org/2000/svg">
<path d="M24.1397 0C10.8073 0 0 10.3866 0 23.2C0 29.6044 2.70002 35.4032 7.06688 39.6012C11.435 43.8016 21.7257 49.88 22.3292 56.26C22.4196 57.2164 23.1403 58 24.1397 58C25.139 58 25.8596 57.2164 25.9501 56.26C26.5536 49.88 36.8443 43.8016 41.2124 39.6012C45.5793 35.4032 48.2793 29.6044 48.2793 23.2C48.2793 10.3866 37.472 0 24.1397 0Z" fill="url(#paint0_linear_401_1192)"/>
<path d="M24.1393 31.3211C28.8055 31.3211 32.5882 27.6856 32.5882 23.2011C32.5882 18.7165 28.8055 15.0811 24.1393 15.0811C19.4731 15.0811 15.6904 18.7165 15.6904 23.2011C15.6904 27.6856 19.4731 31.3211 24.1393 31.3211Z" fill="white"/>
<defs>
<linearGradient id="paint0_linear_401_1192" x1="24.1396" y1="0" x2="24.1396" y2="58" gradientUnits="userSpaceOnUse">
<stop stop-color="#FF6122"/>
<stop offset="1" stop-color="#F22411"/>
</linearGradient>
</defs>
</svg>
