<svg width="81" height="23" viewBox="0 0 81 23" fill="none" xmlns="http://www.w3.org/2000/svg">
<g clip-path="url(#clip0_77_1421)">
<path d="M45.0974 2.42803L39.9824 13.5902H39.4614V2.79767e-08H32.1797V23H38.3489C39.1427 22.9994 39.9197 22.7702 40.5882 22.3394C41.2567 21.9087 41.7888 21.2943 42.1216 20.5689L47.2396 9.40979H47.7576V23H55.027V2.79767e-08H48.87C48.0766 -9.23326e-05 47.2996 0.228503 46.6311 0.658766C45.9626 1.08903 45.4304 1.70297 45.0974 2.42803Z" fill="#319B42"/>
<path d="M17.8274 3.02347L14.7994 13.5902H14.2784L11.2505 3.02347C11.0015 2.15301 10.4783 1.38753 9.7598 0.842251C9.04126 0.296968 8.16623 0.00138766 7.2664 0L0 0V23H7.26947V9.42522H7.7874L11.9523 23H17.1347L21.2874 9.42522H21.8084V23H29.0779V0H21.8176C20.9167 5.0376e-05 20.0403 0.295015 19.3205 0.840398C18.6007 1.38578 18.0767 2.152 17.8274 3.02347Z" fill="#319B42"/>
<path d="M58.1553 10.4526V23.0001H65.4094V15.682H73.2121C74.822 15.6807 76.3919 15.1772 77.7058 14.2407C79.0197 13.3042 80.013 11.9808 80.549 10.4526H58.1553Z" fill="#319B42"/>
<path d="M73.213 0H57.1172C57.6019 2.64151 58.99 5.02883 61.0406 6.74766C63.0912 8.46649 65.6748 9.40835 68.3432 9.40979H80.841C81.0712 8.27092 81.0472 7.09479 80.7706 5.96642C80.4941 4.83804 79.972 3.78561 79.2421 2.88518C78.5121 1.98475 77.5926 1.25881 76.5499 0.759848C75.5073 0.260882 74.3675 0.0013467 73.213 0Z" fill="url(#paint0_linear_77_1421)"/>
</g>
<defs>
<linearGradient id="paint0_linear_77_1421" x1="57.1172" y1="4.7049" x2="81.0004" y2="4.7049" gradientUnits="userSpaceOnUse">
<stop stop-color="#00A3E1"/>
<stop offset="0.3" stop-color="#009ADD"/>
<stop offset="0.8" stop-color="#0082D4"/>
<stop offset="1" stop-color="#0076CF"/>
</linearGradient>
<clipPath id="clip0_77_1421">
<rect width="81" height="23" fill="white"/>
</clipPath>
</defs>
</svg>
