<svg width="61" height="47" viewBox="0 0 61 47" fill="none" xmlns="http://www.w3.org/2000/svg">
<g clip-path="url(#clip0_77_1438)">
<path d="M59.759 46.3405V46.4628H59.8728C59.898 46.4628 59.9196 46.4569 59.9351 46.4474C59.9495 46.4379 59.9579 46.4213 59.9579 46.4011C59.9579 46.3809 59.9495 46.3655 59.9351 46.356C59.9196 46.3453 59.898 46.3405 59.8728 46.3405H59.759ZM59.874 46.2551C59.9327 46.2551 59.9783 46.2681 60.0106 46.2942C60.043 46.3204 60.0586 46.356 60.0586 46.4011C60.0586 46.4391 60.0466 46.4699 60.0202 46.4949C59.9951 46.5186 59.9591 46.534 59.9112 46.54L60.0622 46.7121H59.9447L59.8045 46.5412H59.759V46.7121H59.6607V46.2551H59.874ZM59.8441 46.87C59.898 46.87 59.9483 46.8593 59.9939 46.8391C60.0406 46.819 60.0814 46.7916 60.1161 46.7572C60.1509 46.7228 60.1784 46.6824 60.1988 46.6349C60.218 46.5887 60.2288 46.5388 60.2288 46.4854C60.2288 46.432 60.218 46.3821 60.1988 46.3358C60.1784 46.2895 60.1509 46.2479 60.1161 46.2135C60.0814 46.1791 60.0406 46.1518 59.9939 46.1316C59.9483 46.1126 59.898 46.1031 59.8441 46.1031C59.7901 46.1031 59.7386 46.1126 59.6918 46.1316C59.6439 46.1518 59.6019 46.1791 59.5672 46.2135C59.5324 46.2479 59.5049 46.2895 59.4857 46.3358C59.4653 46.3821 59.4557 46.432 59.4557 46.4854C59.4557 46.5388 59.4653 46.5887 59.4857 46.6349C59.5049 46.6824 59.5324 46.7228 59.5672 46.7572C59.6019 46.7916 59.6439 46.819 59.6918 46.8391C59.7386 46.8593 59.7901 46.87 59.8441 46.87ZM59.8441 45.9927C59.9148 45.9927 59.9795 46.0058 60.0418 46.0319C60.1029 46.0568 60.1557 46.0924 60.2024 46.1375C60.248 46.1815 60.2839 46.2337 60.3103 46.2942C60.3367 46.3536 60.3498 46.4177 60.3498 46.4854C60.3498 46.553 60.3367 46.6171 60.3103 46.6765C60.2839 46.7359 60.248 46.7881 60.2024 46.8332C60.1557 46.8771 60.1029 46.9127 60.0418 46.9389C59.9795 46.965 59.9148 46.978 59.8441 46.978C59.7721 46.978 59.7062 46.965 59.6439 46.9389C59.5816 46.9127 59.5276 46.8771 59.4821 46.8332C59.4366 46.7881 59.4006 46.7359 59.3742 46.6765C59.3479 46.6171 59.3347 46.553 59.3347 46.4854C59.3347 46.4177 59.3479 46.3536 59.3742 46.2942C59.4006 46.2337 59.4366 46.1815 59.4821 46.1375C59.5276 46.0924 59.5816 46.0568 59.6439 46.0319C59.7062 46.0058 59.7721 45.9927 59.8441 45.9927ZM13.1479 44.2322C13.1479 43.3609 13.7244 42.645 14.6665 42.645C15.5666 42.645 16.1742 43.33 16.1742 44.2322C16.1742 45.1344 15.5666 45.8194 14.6665 45.8194C13.7244 45.8194 13.1479 45.1036 13.1479 44.2322ZM17.2002 44.2322V41.7535H16.1119V42.3554C15.7667 41.909 15.2429 41.6289 14.531 41.6289C13.1275 41.6289 12.0273 42.7186 12.0273 44.2322C12.0273 45.747 13.1275 46.8356 14.531 46.8356C15.2429 46.8356 15.7667 46.5554 16.1119 46.1091V46.7109H17.2002V44.2322ZM53.976 44.2322C53.976 43.3609 54.5525 42.645 55.4946 42.645C56.3959 42.645 57.0023 43.33 57.0023 44.2322C57.0023 45.1344 56.3959 45.8194 55.4946 45.8194C54.5525 45.8194 53.976 45.1036 53.976 44.2322ZM58.0295 44.2322V39.7627H56.94V42.3554C56.5948 41.909 56.0711 41.6289 55.3591 41.6289C53.9556 41.6289 52.8554 42.7186 52.8554 44.2322C52.8554 45.747 53.9556 46.8356 55.3591 46.8356C56.0711 46.8356 56.5948 46.5554 56.94 46.1091V46.7109H58.0295V44.2322ZM30.7089 42.594C31.41 42.594 31.8606 43.0297 31.9757 43.7965H29.3785C29.4947 43.0807 29.9334 42.594 30.7089 42.594ZM30.7304 41.6289C29.2634 41.6289 28.2375 42.6866 28.2375 44.2322C28.2375 45.8087 29.3054 46.8356 30.8035 46.8356C31.5574 46.8356 32.2478 46.6492 32.8554 46.1411L32.3221 45.3422C31.9026 45.6734 31.368 45.8609 30.8659 45.8609C30.1647 45.8609 29.5259 45.5392 29.3689 44.6465H33.0855C33.0963 44.5124 33.1071 44.377 33.1071 44.2322C33.0963 42.6866 32.1327 41.6289 30.7304 41.6289ZM43.8712 44.2322C43.8712 43.3609 44.4477 42.645 45.3897 42.645C46.2898 42.645 46.8975 43.33 46.8975 44.2322C46.8975 45.1344 46.2898 45.8194 45.3897 45.8194C44.4477 45.8194 43.8712 45.1036 43.8712 44.2322ZM47.9234 44.2322V41.7535H46.8351V42.3554C46.4888 41.909 45.9662 41.6289 45.2543 41.6289C43.8508 41.6289 42.7505 42.7186 42.7505 44.2322C42.7505 45.747 43.8508 46.8356 45.2543 46.8356C45.9662 46.8356 46.4888 46.5554 46.8351 46.1091V46.7109H47.9234V44.2322ZM37.7251 44.2322C37.7251 45.7363 38.7822 46.8356 40.3954 46.8356C41.1493 46.8356 41.6515 46.6694 42.1956 46.2444L41.6731 45.373C41.2644 45.6639 40.8353 45.8194 40.3631 45.8194C39.4941 45.8087 38.8553 45.1867 38.8553 44.2322C38.8553 43.2778 39.4941 42.6557 40.3631 42.645C40.8353 42.645 41.2644 42.8005 41.6731 43.0914L42.1956 42.22C41.6515 41.7951 41.1493 41.6289 40.3954 41.6289C38.7822 41.6289 37.7251 42.7281 37.7251 44.2322ZM51.7563 41.6289C51.1283 41.6289 50.7196 41.9197 50.4367 42.3554V41.7535H49.3581V46.7109H50.4475V43.9319C50.4475 43.1116 50.8035 42.6557 51.5154 42.6557C51.736 42.6557 51.9661 42.6866 52.1962 42.7804L52.5318 41.7642C52.2909 41.6704 51.9769 41.6289 51.7563 41.6289ZM22.5828 42.1476C22.059 41.8057 21.3375 41.6289 20.5417 41.6289C19.2736 41.6289 18.4574 42.2307 18.4574 43.216C18.4574 44.0245 19.0651 44.5231 20.1845 44.6786L20.6987 44.751C21.2956 44.8341 21.5772 44.9896 21.5772 45.2698C21.5772 45.6532 21.1793 45.8716 20.4362 45.8716C19.6823 45.8716 19.1382 45.633 18.7714 45.3529L18.2585 46.1922C18.8553 46.6278 19.6092 46.8356 20.4254 46.8356C21.8708 46.8356 22.7086 46.1613 22.7086 45.2175C22.7086 44.3462 22.0494 43.8903 20.96 43.7348L20.447 43.6612C19.976 43.5995 19.5984 43.5069 19.5984 43.1745C19.5984 42.8112 19.9544 42.594 20.5513 42.594C21.1901 42.594 21.8085 42.8326 22.1118 43.019L22.5828 42.1476ZM36.6248 41.6289C35.9968 41.6289 35.5881 41.9197 35.3064 42.3554V41.7535H34.2278V46.7109H35.316V43.9319C35.316 43.1116 35.672 42.6557 36.3839 42.6557C36.6044 42.6557 36.8346 42.6866 37.0647 42.7804L37.4003 41.7642C37.1594 41.6704 36.8454 41.6289 36.6248 41.6289ZM27.3374 41.7535H25.5575V40.2494H24.4573V41.7535H23.4421V42.7388H24.4573V45.0003C24.4573 46.1506 24.9079 46.8356 26.1952 46.8356C26.6674 46.8356 27.2115 46.6907 27.5567 46.4521L27.2427 45.5286C26.9179 45.7149 26.5619 45.8087 26.2791 45.8087C25.7349 45.8087 25.5575 45.4763 25.5575 44.9789V42.7388H27.3374V41.7535ZM11.0649 46.7109V43.5995C11.0649 42.4278 10.311 41.6395 9.09566 41.6289C8.45684 41.6182 7.79765 41.8152 7.33621 42.5109C6.99103 41.9613 6.4469 41.6289 5.68223 41.6289C5.14768 41.6289 4.62512 41.7844 4.21642 42.3649V41.7535H3.12695V46.7109H4.22601V43.9627C4.22601 43.1021 4.70782 42.645 5.45211 42.645C6.17483 42.645 6.54038 43.1116 6.54038 43.9521V46.7109H7.64064V43.9627C7.64064 43.1021 8.14282 42.645 8.86554 42.645C9.60863 42.645 9.9646 43.1116 9.9646 43.9521V46.7109H11.0649Z" fill="#231F20"/>
<path d="M60.4299 30.2241V29.5H60.2393L60.0188 29.9974L59.7994 29.5H59.6077V30.2241H59.7431V29.678L59.9492 30.1493H60.0895L60.2956 29.6769V30.2241H60.4299ZM59.2205 30.2241V29.6234H59.465V29.5012H58.8418V29.6234H59.0863V30.2241H59.2205Z" fill="#F79410"/>
<path d="M38.7604 33.3389H22.2666V3.979H38.7604V33.3389Z" fill="#FF5F00"/>
<path d="M23.323 18.6564C23.323 12.7006 26.1383 7.39534 30.5226 3.97643C27.3165 1.47635 23.2702 -0.0158577 18.8728 -0.0158577C8.46233 -0.0158577 0.0234375 8.34385 0.0234375 18.6564C0.0234375 28.9689 8.46233 37.3286 18.8728 37.3286C23.2702 37.3286 27.3165 35.8364 30.5226 33.3363C26.1383 29.9174 23.323 24.6122 23.323 18.6564Z" fill="#EB001B"/>
<path d="M61.0052 18.6564C61.0052 28.9689 52.5663 37.3286 42.1558 37.3286C37.7584 37.3286 33.7122 35.8364 30.5049 33.3363C34.8903 29.9174 37.7057 24.6122 37.7057 18.6564C37.7057 12.7006 34.8903 7.39534 30.5049 3.97643C33.7122 1.47635 37.7584 -0.0158577 42.1558 -0.0158577C52.5663 -0.0158577 61.0052 8.34385 61.0052 18.6564Z" fill="#F79E1B"/>
</g>
<defs>
<clipPath id="clip0_77_1438">
<rect width="61" height="47" fill="white"/>
</clipPath>
</defs>
</svg>
