<svg width="25" height="24" viewBox="0 0 25 24" fill="none" xmlns="http://www.w3.org/2000/svg">
<path d="M0 3.75C0 1.67893 1.74889 0 3.90625 0H21.0938C23.2511 0 25 1.67893 25 3.75V20.25C25 22.3211 23.2511 24 21.0938 24H3.90625C1.74889 24 0 22.3211 0 20.25V3.75Z" fill="#FF8800"/>
<path fill-rule="evenodd" clip-rule="evenodd" d="M16.3096 8.60269C16.3096 10.6046 14.6096 12.2366 12.5242 12.2366C10.4162 12.2366 8.71619 10.6046 8.71619 8.60269C8.71619 6.60076 10.4162 4.96875 12.5242 4.96875C14.6096 4.96875 16.3096 6.60076 16.3096 8.60269ZM14.0882 8.60269C14.0882 7.77581 13.3855 7.10124 12.5242 7.10124C11.6402 7.10124 10.9375 7.77581 10.9602 8.60269C10.9602 9.42958 11.6629 10.1041 12.5242 10.1041C13.3855 10.1041 14.0882 9.42958 14.0882 8.60269Z" fill="white"/>
<path d="M16.2416 14.3474C15.5616 14.7608 14.8135 15.0437 14.0429 15.2178L16.1963 17.2197C16.6269 17.6332 16.6269 18.3077 16.1963 18.7212C15.7656 19.1346 15.0629 19.1346 14.6323 18.7212L12.5469 16.7192L10.4616 18.7212C10.2349 18.917 9.96289 19.0258 9.66822 19.0258C9.37356 19.0258 9.10156 18.9388 8.87489 18.7212C8.44421 18.3077 8.44421 17.6332 8.87489 17.2197L10.9829 15.196C10.2122 15.0219 9.46422 14.7391 8.78422 14.3256C8.26288 14.021 8.10421 13.3682 8.39888 12.8677C8.73889 12.3672 9.41889 12.2367 9.94023 12.5413C11.4816 13.477 13.4989 13.477 15.0402 12.5413C15.5616 12.2149 16.2643 12.3672 16.5816 12.8677C16.9216 13.3682 16.7629 14.0427 16.2416 14.3474Z" fill="white"/>
</svg>
