<svg width="26" height="26" viewBox="0 0 26 26" fill="none" xmlns="http://www.w3.org/2000/svg">
<path d="M13 3.25C8.46788 3.25 4.66538 6.3635 3.57988 10.5625H5.25687C6.29362 7.26781 9.36812 4.875 13 4.875C17.4817 4.875 21.125 8.51825 21.125 13C21.125 17.4817 17.4817 21.125 13 21.125C9.36894 21.125 6.29362 18.7322 5.25606 15.4375H3.57988C4.66538 19.6365 8.46788 22.75 13 22.75C18.3763 22.75 22.75 18.3763 22.75 13C22.75 7.62369 18.3763 3.25 13 3.25ZM12.467 9.16581L11.2986 10.3342L13.1519 12.1875H3.25V13.8125H13.1528L11.2986 15.6658L12.467 16.8342L15.717 13.5842L16.2744 13L15.7162 12.4158L12.467 9.16581Z" fill="white"/>
</svg>
