<svg width="83" height="27" viewBox="0 0 83 27" fill="none" xmlns="http://www.w3.org/2000/svg">
<g clip-path="url(#clip0_77_1429)">
<mask id="mask0_77_1429" style="mask-type:luminance" maskUnits="userSpaceOnUse" x="0" y="0" width="84" height="27">
<path d="M24.469 0.479079L17.4889 18.2503L14.6641 3.13991C14.5483 2.3974 14.1727 1.72108 13.6051 1.23312C13.0376 0.745146 12.3155 0.477698 11.5693 0.479079H0.157471L0 1.23331C2.34278 1.74799 5.00372 2.58962 6.61699 3.45714C7.60359 3.99772 7.8864 4.46709 8.22384 5.75219L13.5586 26.5921H20.6287L31.5135 0.479079H24.469ZM34.3897 0.479079L28.8429 26.5921H35.5499L41.0967 0.479079H34.3897ZM72.8447 7.53255L74.879 17.3375H69.3129L72.8447 7.53255ZM71.8614 0.479079C71.2499 0.47229 70.6507 0.651171 70.1416 0.99241C69.6326 1.33365 69.2374 1.82142 69.0076 2.39216L58.9423 26.5921H65.9835L67.3815 22.6915H75.9877L76.8072 26.5921H83.0096L77.5849 0.479079H71.8614ZM42.9221 8.6299C42.8803 12.3946 46.2547 14.4889 48.7967 15.7513C51.4062 17.0462 52.2835 17.8522 52.2739 18.9884C52.2546 20.7396 50.1882 21.5132 48.26 21.5424C44.8888 21.5974 42.9317 20.6263 41.3698 19.8947L40.1711 25.6113C41.7362 26.3364 44.6285 26.9676 47.6269 27C54.6745 27 59.283 23.4943 59.3055 18.0658C59.3344 11.1742 49.8444 10.7922 49.9086 7.70735C49.9279 6.77185 50.8149 5.76514 52.7527 5.51912C55.0205 5.30212 57.3044 5.70585 59.3633 6.68769L60.5427 1.15238C58.5326 0.392873 56.4036 0.00257011 54.2568 0C47.6269 0 42.9606 3.56072 42.9221 8.6299Z" fill="white"/>
</mask>
<g mask="url(#mask0_77_1429)">
<path d="M83 0H0V27H83V0Z" fill="url(#paint0_linear_77_1429)"/>
</g>
</g>
<defs>
<linearGradient id="paint0_linear_77_1429" x1="-0.374556" y1="12.703" x2="82.5907" y2="12.703" gradientUnits="userSpaceOnUse">
<stop stop-color="#241F5D"/>
<stop offset="1" stop-color="#034EA1"/>
</linearGradient>
<clipPath id="clip0_77_1429">
<rect width="83" height="27" fill="white"/>
</clipPath>
</defs>
</svg>
