<svg width="25" height="24" viewBox="0 0 25 24" fill="none" xmlns="http://www.w3.org/2000/svg">
<path d="M21.0938 0H3.90625C1.74889 0 0 1.67893 0 3.75V20.25C0 22.3211 1.74889 24 3.90625 24H21.0938C23.2511 24 25 22.3211 25 20.25V3.75C25 1.67893 23.2511 0 21.0938 0Z" fill="#25D366"/>
<path fill-rule="evenodd" clip-rule="evenodd" d="M16.875 7.725C15.7031 6.6 14.1406 6 12.5 6C9.0625 6 6.25 8.7 6.25 12C6.25 13.05 6.5625 14.1 7.10938 15L6.25 18L9.53126 17.175C10.4688 17.625 11.4844 17.925 12.5 17.925C15.9375 17.925 18.75 15.225 18.75 11.925C18.75 10.35 18.0469 8.85 16.875 7.725ZM12.5 16.95C11.5625 16.95 10.625 16.725 9.84375 16.275L9.6875 16.2L7.73437 16.725L8.28125 14.925L8.125 14.7C7.57812 13.875 7.34375 12.975 7.34375 12.075C7.34375 9.375 9.6875 7.125 12.5 7.125C13.9062 7.125 15.1563 7.65 16.1719 8.55C17.1875 9.525 17.6563 10.725 17.6563 12.075C17.6563 14.7 15.3906 16.95 12.5 16.95ZM15.3125 13.2C15.1563 13.125 14.375 12.75 14.2188 12.75C14.0625 12.675 13.9844 12.675 13.9062 12.825C13.8281 12.975 13.5156 13.275 13.4375 13.425C13.3594 13.5 13.2812 13.5 13.125 13.5C12.9687 13.425 12.5 13.275 11.875 12.75C11.4063 12.375 11.0938 11.85 11.0156 11.7C10.9375 11.55 11.0156 11.475 11.0938 11.4C11.1719 11.325 11.25 11.25 11.3281 11.175C11.4062 11.1 11.4063 11.025 11.4844 10.95C11.5625 10.875 11.4844 10.8 11.4844 10.725C11.4844 10.65 11.1719 9.9 11.0156 9.6C10.9375 9.375 10.7813 9.375 10.7031 9.375C10.625 9.375 10.5469 9.375 10.3906 9.375C10.3125 9.375 10.1562 9.375 9.99999 9.525C9.84374 9.675 9.45313 10.05 9.45313 10.8C9.45313 11.55 10 12.225 10.0781 12.375C10.1562 12.45 11.1719 14.025 12.7344 14.625C14.0625 15.15 14.2969 15 14.6094 15C14.9219 15 15.5469 14.625 15.625 14.325C15.7812 13.95 15.7813 13.65 15.7031 13.65C15.625 13.275 15.4688 13.275 15.3125 13.2Z" fill="white"/>
</svg>
