<svg width="363" height="58" viewBox="0 0 363 58" fill="none" xmlns="http://www.w3.org/2000/svg">
<g clip-path="url(#clip0_77_1450)">
<path d="M24.1397 0C10.8073 0 0 10.3866 0 23.2C0 29.6044 2.70002 35.4032 7.06688 39.6012C11.435 43.8016 21.7257 49.88 22.3292 56.26C22.4196 57.2164 23.1403 58 24.1397 58C25.139 58 25.8596 57.2164 25.9501 56.26C26.5536 49.88 36.8443 43.8016 41.2124 39.6012C45.5793 35.4032 48.2793 29.6044 48.2793 23.2C48.2793 10.3866 37.472 0 24.1397 0Z" fill="url(#paint0_linear_77_1450)"/>
<path d="M24.1393 31.3211C28.8055 31.3211 32.5882 27.6856 32.5882 23.2011C32.5882 18.7165 28.8055 15.0811 24.1393 15.0811C19.4731 15.0811 15.6904 18.7165 15.6904 23.2011C15.6904 27.6856 19.4731 31.3211 24.1393 31.3211Z" fill="white"/>
<path d="M90.3849 42.9247H96.7599V7.7334H87.4872C78.1618 7.7334 73.262 12.3412 73.262 19.1263C73.262 24.5442 75.9488 27.7342 80.7432 31.0254L72.4189 42.9247H79.3208L88.5934 29.6076L85.3795 27.5317C81.481 24.9999 79.5842 23.0252 79.5842 18.7718C79.5842 15.0248 82.3237 12.4931 87.5397 12.4931H90.3849V42.9247ZM174.102 41.203V36.2915C172.153 37.5574 168.886 38.6713 165.831 38.6713C161.247 38.6713 159.508 36.5954 159.245 32.342H174.366V29.152C174.366 20.2909 170.309 16.949 164.039 16.949C156.4 16.949 152.765 22.5694 152.765 30.2659C152.765 39.1271 157.296 43.431 165.304 43.431C169.308 43.431 172.258 42.4184 174.102 41.203ZM213.301 43.431C216.198 43.431 218.253 42.9247 219.781 41.8613V36.9498C218.2 38.013 216.304 38.6713 213.669 38.6713C209.191 38.6713 207.347 35.3293 207.347 30.0635C207.347 24.5442 209.613 21.7086 213.722 21.7086C216.146 21.7086 218.517 22.5188 219.781 23.2783V18.1642C218.464 17.4553 216.146 16.949 213.037 16.949C205.029 16.949 200.867 22.4682 200.867 30.2154C200.867 38.722 204.924 43.431 213.301 43.431ZM116.675 17.4553V27.5317H108.298V17.4553H102.028V42.9247H108.298V32.2913H116.675V42.9247H122.944V17.4553H116.675ZM151.237 38.1649H148.444V17.4553H130.162V19.6326C130.162 25.8607 129.741 33.9118 127.528 38.1649H125.579V48.7476H131.374V42.9247H145.441V48.7476H151.237V38.1649ZM194.123 42.9247H201.236L191.172 29.2025L200.024 17.4553H193.701L184.85 29.2025V17.4553H178.581V42.9247H184.85V30.4179L194.123 42.9247ZM163.934 21.7086C167.042 21.7086 167.991 24.1898 167.991 27.3798V27.8861H159.245C159.403 23.8353 160.931 21.7086 163.934 21.7086ZM142.175 38.1649H133.324C135.062 34.3166 135.537 27.3798 135.537 22.9745V22.215H142.175V38.1649Z" fill="white"/>
<path d="M252.135 42.9247H259.563L246.497 24.3923L258.72 7.7334H252.398L240.544 23.9366V7.7334H234.169V42.9247H240.544V26.4177L252.135 42.9247Z" fill="white"/>
<path d="M280.702 25.557C280.702 19.3795 277.436 17.0503 270.797 17.0503C266.635 17.0503 263.368 18.3162 261.472 19.3795V24.3924C263.158 23.1771 266.846 21.8606 270.06 21.8606C273.063 21.8606 274.433 22.8733 274.433 25.6076V27.0254H273.431C263.843 27.0254 259.575 30.0635 259.575 35.2282C259.575 40.3931 262.842 43.2791 267.689 43.2791C271.377 43.2791 272.957 42.1145 274.169 40.8994H274.433C274.485 41.5577 274.696 42.4184 274.907 42.9248H281.018C280.808 40.8487 280.702 38.7725 280.702 36.6967V25.557ZM274.433 36.8487C273.642 37.9626 272.167 38.874 269.954 38.874C267.32 38.874 266.003 37.355 266.003 35.0762C266.003 32.0889 268.163 31.0255 273.537 31.0255H274.433V36.8487Z" fill="white"/>
<path d="M291.354 17.4551H285.559V50.2664H291.828V39.9369C293.409 42.2157 295.727 43.4308 298.414 43.4308C304.525 43.4308 308.741 38.7218 308.741 30.1645C308.741 21.6578 304.631 16.9487 298.73 16.9487C295.78 16.9487 293.356 18.2652 291.67 20.7464L291.354 17.4551ZM296.833 38.671C293.514 38.671 291.828 36.0889 291.828 30.2152C291.828 24.2908 293.619 21.7084 297.149 21.7084C300.574 21.7084 302.259 24.2908 302.259 30.1645C302.259 36.0889 300.468 38.671 296.833 38.671Z" fill="white"/>
<path d="M330.593 22.2148V17.4551H309.57V22.2148H316.945V42.9244H323.215V22.2148H330.593Z" fill="white"/>
<path d="M334.117 17.4551V42.9244H343.655C349.82 42.9244 354.192 39.8864 354.192 33.9115C354.192 28.2403 350.294 25.2528 343.761 25.2528H340.387V17.4551H334.117ZM356.51 17.4551V42.9244H362.78V17.4551H356.51ZM343.284 38.1647H340.387V30.0125H343.444C346.13 30.0125 347.711 31.1771 347.711 34.114C347.711 37.0508 345.973 38.1647 343.284 38.1647Z" fill="white"/>
</g>
<defs>
<linearGradient id="paint0_linear_77_1450" x1="24.1396" y1="0" x2="24.1396" y2="58" gradientUnits="userSpaceOnUse">
<stop stop-color="#FF6122"/>
<stop offset="1" stop-color="#F22411"/>
</linearGradient>
<clipPath id="clip0_77_1450">
<rect width="363" height="58" fill="white"/>
</clipPath>
</defs>
</svg>
